PathFileType	4	(X/Y/Z)	c:/Users/goper/Files/vsCode/490R/osim_files/A06/A06_Slow_03.trc
DataRate	CameraRate	NumFrames	NumMarkers	Units                	OrigDataRate	OrigDataStartFrame	OrigNumFrames
120.00	120.00	6	36	mm	120.0	1065	1216
                Frame#	Time	LPSIS			LASIS			LTH1			LTH2			LTH3			LTH4			LLFE			LMFE			LSH1			LSH2			LSH3			LSH4			LLMAL			LMMAL			LCAL			LMTP5			LTOE			LMTP1			RPSIS			RASIS			RTH1			RTH2			RTH3			RTH4			RLFE			RMFE			RSH1			RSH2			RSH3			RSH4			RLMAL			RMMAL			RCAL			RMTP1			RTOE			RMTP5		
		X1	Y1	Z1	X2	Y2	Z2	X3	Y3	Z3	X4	Y4	Z4	X5	Y5	Z5	X6	Y6	Z6	X7	Y7	Z7	X8	Y8	Z8	X9	Y9	Z9	X10	Y10	Z10	X11	Y11	Z11	X12	Y12	Z12	X13	Y13	Z13	X14	Y14	Z14	X15	Y15	Z15	X16	Y16	Z16	X17	Y17	Z17	X18	Y18	Z18	X19	Y19	Z19	X20	Y20	Z20	X21	Y21	Z21	X22	Y22	Z22	X23	Y23	Z23	X24	Y24	Z24	X25	Y25	Z25	X26	Y26	Z26	X27	Y27	Z27	X28	Y28	Z28	X29	Y29	Z29	X30	Y30	Z30	X31	Y31	Z31	X32	Y32	Z32	X33	Y33	Z33	X34	Y34	Z34	X35	Y35	Z35	X36	Y36	Z36

1065	8.86667	-3712.86353	1011.90906	354.84311	-3907.90601	949.72571	409.73419	-3822.64697	593.96899	438.22998	-3828.64111	552.86493	432.19431	0.00000	0.00000	0.00000	-3882.12158	553.80261	424.89194	-3855.10376	478.89307	415.79333	-3862.46533	474.59045	308.38870	-3792.58423	386.75729	429.10068	-3796.52344	340.56293	430.96964	-3852.82715	386.36285	421.65793	-3850.33447	343.90237	424.20081	-3793.40918	89.24982	380.38568	-3816.39429	107.38811	298.92520	-3730.53638	83.49020	325.06622	-3909.34937	44.97246	397.41461	-3950.41406	68.48565	347.12308	-3927.99731	61.73016	306.55493	0.00000	0.00000	0.00000	-3879.41113	1005.08093	160.61955	-3917.06494	625.77698	135.58597	-3926.36670	582.37646	132.78116	-3858.62354	608.33551	123.33278	-3875.57275	568.58600	123.99078	-3926.65674	466.89182	155.20157	-3920.08521	466.62646	245.51967	-3836.14893	337.81653	162.59900	-3815.57739	295.48181	163.02055	-3884.53638	307.23227	179.82826	-3859.58569	268.37833	173.47716	0.00000	0.00000	0.00000	0.00000	0.00000	0.00000	-3686.33960	177.37819	193.59850	-3855.37720	72.12093	237.43506	-3876.86548	75.43053	199.37175	-3849.66479	72.70826	149.61499
1066	8.87500	-3718.19312	1010.93884	354.51688	-3914.21973	949.68799	409.62143	-3825.93408	594.14062	438.07513	-3831.69702	552.83453	432.10507	0.00000	0.00000	0.00000	-3884.89478	553.28540	424.65613	-3857.12207	478.71426	415.57617	-3864.58179	474.51752	308.13406	-3793.90430	386.89636	428.87183	-3797.72534	340.79095	430.77481	-3854.16284	386.11700	421.54507	-3851.46436	343.75851	424.08084	-3793.46875	89.29791	380.25281	-3816.49976	107.39294	298.80295	-3730.49756	83.56833	325.00464	-3909.33960	44.96586	397.43668	-3950.41724	68.39373	347.09821	-3928.00488	61.65167	306.56906	-3705.90479	1031.17578	223.11047	-3885.27393	1005.31097	160.56255	-3925.34937	626.92371	135.49469	-3935.01440	583.63080	132.68578	-3867.04980	608.94012	123.13504	-3884.39673	569.45172	123.76836	-3936.24097	468.00513	154.74982	-3931.22021	468.65366	244.57202	-3851.40649	335.01590	162.40097	-3834.24927	292.94818	162.84933	-3901.77515	306.76007	179.30212	-3877.86621	266.54111	173.20482	0.00000	0.00000	0.00000	0.00000	0.00000	0.00000	-3708.99756	168.84753	196.98846	-3882.73901	70.51569	237.23979	-3904.08691	74.80377	199.16315	-3877.07886	70.81821	149.40633
1067	8.88333	-3724.81543	1011.67285	355.65176	-3920.38232	949.57666	409.48959	-3829.45361	594.36700	438.06412	-3834.97046	552.82770	432.03790	0.00000	0.00000	0.00000	-3887.91284	552.82483	424.48074	-3859.18701	478.49747	415.41898	-3866.70190	474.31738	307.90527	-3795.38550	387.09976	428.72363	-3798.88013	340.91974	430.65118	-3855.62402	385.96069	421.48779	-3852.69287	343.61157	424.01083	-3793.52271	89.36782	380.19318	-3816.52417	107.31963	298.70786	0.00000	0.00000	0.00000	-3909.30713	44.91026	397.48499	-3950.42212	68.31052	347.06488	-3928.03296	61.56099	306.56717	-3716.98853	1031.52576	225.55843	-3891.24292	1005.47589	160.50900	-3933.35132	627.81183	135.29350	-3943.20508	584.58331	132.62495	-3875.11157	609.41187	122.89201	-3892.02197	570.46735	123.31046	-3945.97119	468.93216	154.77005	-3940.41162	469.43246	244.06616	-3866.55298	332.02710	162.11391	-3851.57031	289.24393	162.46532	-3918.32129	306.20920	178.88562	-3896.17847	264.91693	172.84908	0.00000	0.00000	0.00000	0.00000	0.00000	0.00000	-3732.27368	160.26648	194.65390	-3910.38501	69.42521	237.07423	-3931.46265	74.65500	198.96593	-3904.71631	69.36712	149.15633
1068	8.89167	-3730.96094	1011.35370	356.06693	-3926.62012	949.45068	409.42798	-3831.68164	593.91217	437.30249	-3838.33643	552.85846	432.04486	-3893.60669	592.94946	429.88043	-3891.00195	552.35852	424.35764	-3861.30884	478.29745	415.28970	-3868.80884	473.98981	307.68475	-3796.95239	387.23096	428.59903	-3800.22559	341.02957	430.59644	-3857.19287	385.74139	421.37701	-3854.03760	343.47931	423.98315	-3793.61621	89.44967	380.13162	-3816.61792	107.33526	298.58896	-3729.39624	83.74047	324.36661	-3909.29297	44.88529	397.51608	-3950.43457	68.21952	347.03043	-3928.05542	61.48543	306.57895	-3723.13599	1031.32788	225.98743	-3897.32031	1005.55841	160.49905	-3941.01025	628.38226	135.03333	-3950.27441	584.47162	132.73752	-3882.93042	609.65369	122.52524	-3900.25220	569.83087	122.35364	-3954.58081	469.44885	154.10278	-3949.08105	469.79413	243.44852	-3881.64111	329.01978	161.76976	-3866.22778	284.71875	162.26253	-3934.61743	305.65332	178.37488	-3914.36035	263.24072	172.46738	0.00000	0.00000	0.00000	0.00000	0.00000	0.00000	-3755.05371	149.27229	193.53613	-3938.14771	68.84042	236.73990	-3958.90234	75.05263	198.68867	-3932.39893	68.42512	148.89825
1069	8.90000	-3737.40063	1010.94153	356.35947	-3932.94482	949.27881	409.40845	-3835.44800	594.06024	437.31561	-3841.65869	552.74701	432.11841	-3898.27075	594.48669	427.75784	-3894.14282	551.81763	424.20914	-3863.57739	478.06631	415.24039	-3871.10352	473.79224	307.55786	-3798.60986	387.35214	428.55270	-3801.62524	341.14438	430.50595	-3858.88550	385.51822	421.33023	-3855.59741	343.31729	423.91757	-3793.66479	89.44482	380.03531	-3817.33057	106.90063	298.54086	-3730.65552	83.72175	324.86478	-3909.29346	44.87172	397.56659	-3950.43872	68.09122	346.99310	-3928.09448	61.37561	306.58163	-3729.44067	1030.89429	226.32156	-3903.23657	1005.41638	160.48206	-3948.41748	628.66705	134.70496	-3957.84692	584.77283	132.25414	-3890.43286	609.72296	122.15503	-3907.75269	569.93982	121.98322	-3962.10669	469.51712	152.72604	-3955.42700	468.51147	243.02725	-3896.64380	325.95932	161.30257	-3884.93848	280.32986	161.31000	-3950.74121	305.15976	177.81676	-3932.38403	261.72394	171.98856	-3843.41089	146.90569	151.32591	-3850.05444	145.64294	236.29243	-3779.95947	141.99426	194.24535	-3966.02393	69.01167	236.46559	-3986.29395	76.11133	198.33682	-3960.15942	68.06535	148.57793
1070	8.90833	-3743.48877	1010.44446	356.62082	-3939.25317	949.01709	409.41116	-3839.27319	594.12848	437.38361	-3845.33130	552.63995	432.13422	-3902.06763	593.93207	427.44324	-3897.42676	551.20020	424.06415	-3866.05908	477.80051	415.20868	-3873.54297	473.60175	307.44083	-3800.36230	387.41241	428.52908	-3803.06250	341.18457	430.42450	-3860.69312	385.20840	421.28122	-3857.13672	343.03543	423.85333	-3793.79858	89.49464	379.93900	-3817.44214	106.81577	298.33347	-3730.72607	83.72112	324.79663	-3909.27759	44.77663	397.61057	-3950.47803	67.91130	346.97302	-3928.14307	61.21683	306.56873	-3730.38306	1029.90540	224.56982	-3909.43652	1005.21600	160.49934	-3955.58545	628.65259	134.34154	-3965.12158	584.79730	131.73709	0.00000	0.00000	0.00000	-3916.14941	570.64423	121.72837	-3970.36768	469.47382	152.51987	-3963.17773	468.23236	242.20384	-3911.24219	322.20346	162.20828	-3900.70142	277.15726	161.44408	-3966.59448	304.77664	177.20769	-3950.28882	260.31161	171.52029	0.00000	0.00000	0.00000	0.00000	0.00000	0.00000	-3803.40820	131.50531	193.15808	-3993.60449	69.03675	237.38092	-4013.53760	77.78134	197.97495	-3987.85522	68.38581	148.19897
